<svg xmlns="http://www.w3.org/2000/svg" width="600" height="500" viewBox="0 0 600 500"><rect width="100%" height="100%" fill="#0B5FFF"/><path fill="#FFFFFF" d="M122.43 250.46h7.13l-2.73-7.46q-.2-.49-.42-1.18-.21-.68-.43-1.47-.2.79-.42 1.48-.21.69-.42 1.2zm5.69-13.95 8.8 22.41h-3.22q-.54 0-.88-.27t-.52-.68l-1.67-4.57h-9.28l-1.68 4.57q-.12.36-.48.66-.35.29-.88.29h-3.26l8.82-22.41zm25.26 3.31h-9.95v6.22h7.85v3.21h-7.85v6.34h9.95v3.33h-14.13v-22.41h14.13zm16.67-1.2-1.04 1.96q-.19.33-.4.48-.21.14-.52.14-.32 0-.7-.24t-.91-.53q-.52-.3-1.23-.54t-1.67-.24q-.86 0-1.52.21-.65.21-1.09.58-.44.38-.66.9-.21.51-.21 1.13 0 .8.44 1.32.44.53 1.17.9t1.66.67q.93.29 1.9.63.98.33 1.91.77t1.66 1.12q.73.67 1.17 1.65.44.97.44 2.37 0 1.52-.52 2.84-.52 1.33-1.52 2.31-1 .99-2.44 1.55-1.44.57-3.3.57-1.07 0-2.11-.21t-1.99-.6-1.79-.93-1.49-1.21l1.23-2q.15-.21.4-.36t.53-.15q.38 0 .83.32t1.07.71q.62.38 1.45.7t1.99.32q1.79 0 2.76-.85.98-.84.98-2.42 0-.89-.44-1.44-.44-.56-1.17-.94t-1.66-.65q-.93-.26-1.89-.57t-1.89-.74q-.93-.44-1.66-1.13-.73-.7-1.17-1.75-.44-1.04-.44-2.58 0-1.22.48-2.39.49-1.16 1.42-2.06t2.3-1.44q1.36-.54 3.13-.54 1.98 0 3.66.62 1.67.62 2.85 1.74m3.3 12.53v-3.19h8.03v3.19zm19.25 4.21h5.75q.62 0 .98.34.37.35.37.93v2.29h-15.38v-1.27q0-.39.17-.81.16-.43.51-.77l6.81-6.82q.85-.87 1.53-1.66.67-.79 1.12-1.57.45-.77.69-1.57t.24-1.68q0-.81-.23-1.42-.24-.61-.66-1.03-.43-.42-1.02-.63-.6-.21-1.35-.21-.68 0-1.26.2-.58.19-1.03.54t-.76.81q-.31.47-.46 1.03-.27.71-.69.94-.41.23-1.2.11l-2.02-.36q.23-1.61.9-2.83.67-1.21 1.67-2.03 1-.81 2.29-1.22t2.78-.41q1.55 0 2.84.46 1.28.45 2.2 1.29.91.84 1.43 2.02.51 1.17.51 2.62 0 1.23-.37 2.29-.36 1.05-.97 2.01-.62.96-1.44 1.86t-1.72 1.83l-5.05 5.16q.73-.21 1.45-.33.72-.11 1.37-.11m15.61-15.38-.79 4.66q.74-.15 1.42-.22.69-.07 1.32-.07 1.77 0 3.12.53 1.35.52 2.26 1.45t1.38 2.18q.46 1.25.46 2.69 0 1.78-.62 3.26-.63 1.47-1.75 2.51-1.11 1.05-2.64 1.62-1.53.58-3.32.58-1.06 0-2-.22-.95-.22-1.78-.58t-1.53-.84q-.71-.47-1.27-1l1.18-1.62q.37-.53.98-.53.39 0 .79.25.4.24.92.54.52.29 1.23.54.7.25 1.69.25 1.06 0 1.86-.34.81-.34 1.34-.95.54-.62.81-1.46.27-.85.27-1.84 0-1.83-1.06-2.86t-3.14-1.03q-1.6 0-3.27.59l-2.39-.68 1.86-10.88h11.07v1.62q0 .83-.51 1.34t-1.74.51zm25.64-3.47-6.65 8.13-.78.97q.65-.33 1.4-.51.76-.18 1.62-.18 1.27 0 2.48.42 1.2.42 2.11 1.27.92.84 1.47 2.1.56 1.25.56 2.92 0 1.57-.57 2.94-.58 1.37-1.61 2.4-1.04 1.02-2.51 1.61-1.46.59-3.23.59-1.8 0-3.22-.58-1.43-.57-2.44-1.6-1-1.03-1.54-2.48-.53-1.45-.53-3.22 0-1.58.64-3.24.64-1.67 1.99-3.47l5.35-7.17q.28-.38.81-.64.54-.26 1.24-.26zm-5.79 19.53q.92 0 1.69-.31.76-.31 1.31-.87t.86-1.31.31-1.64q0-.96-.29-1.72-.3-.77-.84-1.31-.54-.53-1.3-.81t-1.67-.28q-.92 0-1.66.31-.75.31-1.27.86-.53.55-.83 1.3-.29.75-.29 1.62 0 .93.26 1.7.25.77.76 1.31.5.54 1.24.84.75.31 1.72.31m33.19-16.22h-9.95v6.22h7.84v3.21h-7.84v6.34h9.95v3.33h-14.14v-22.41h14.14zm6.4 3.89.26 1.26q.48-.48 1.02-.89.53-.41 1.13-.7t1.28-.45 1.49-.16q1.3 0 2.31.44 1 .44 1.68 1.24.67.8 1.02 1.91t.35 2.44v10.12h-3.83V248.8q0-1.46-.66-2.26-.67-.8-2.03-.8-1 0-1.86.45-.87.45-1.65 1.23v11.5h-3.83v-15.9h2.34q.75 0 .98.69m26.57 1.28-1.01 1.39q-.17.22-.33.34-.17.13-.48.13-.29 0-.57-.18t-.67-.41q-.38-.22-.92-.4-.53-.18-1.32-.18-1.01 0-1.77.37-.76.36-1.26 1.04-.51.69-.76 1.65-.24.97-.24 2.2 0 1.27.27 2.26t.78 1.67q.51.67 1.24 1.02t1.64.35q.92 0 1.48-.23.57-.22.96-.49.38-.27.67-.5.29-.22.64-.22.47 0 .7.35l1.1 1.4q-.63.74-1.38 1.25-.74.5-1.54.8t-1.64.43q-.85.12-1.68.12-1.48 0-2.78-.55t-2.28-1.6q-.97-1.06-1.54-2.58-.56-1.53-.56-3.48 0-1.75.5-3.25t1.48-2.59 2.42-1.71 3.31-.62q1.79 0 3.13.57 1.34.58 2.41 1.65m5.92-1.01.23 1.8q.75-1.43 1.77-2.24 1.02-.82 2.42-.82 1.1 0 1.76.48l-.24 2.87q-.08.28-.23.4-.15.11-.39.11t-.69-.08q-.46-.07-.9-.07-.63 0-1.13.18-.49.19-.89.54-.39.35-.7.84-.3.5-.56 1.13v9.8h-3.83v-15.9h2.25q.59 0 .82.21t.31.75m19.56-.96h3.07l-8.67 20.27q-.17.4-.44.61t-.83.21h-2.85l2.98-6.38-6.44-14.71h3.37q.45 0 .7.21.26.22.38.5l3.38 8.25q.17.41.29.83t.22.86q.14-.44.28-.86.14-.43.31-.85l3.2-8.23q.12-.31.41-.51.28-.2.64-.2m8.8 4.65v7.13q.65.79 1.42 1.11.77.33 1.67.33.87 0 1.56-.33.7-.32 1.19-.99t.75-1.68q.26-1.02.26-2.4 0-1.39-.22-2.36t-.64-1.57q-.42-.61-1.02-.89t-1.35-.28q-1.2 0-2.04.51-.83.5-1.58 1.42m-.51-3.96.31 1.48q.98-1.1 2.22-1.79 1.24-.68 2.91-.68 1.3 0 2.38.55 1.08.54 1.86 1.57t1.21 2.54.43 3.46q0 1.79-.48 3.31t-1.37 2.63q-.9 1.12-2.16 1.74-1.26.63-2.83.63-1.33 0-2.28-.41-.94-.41-1.69-1.14v6.51h-3.82v-21.09h2.34q.74 0 .97.69m19.59 15.46q-2.07 0-3.18-1.17t-1.11-3.23v-8.89h-1.63q-.31 0-.52-.2-.22-.2-.22-.6v-1.52l2.56-.42.8-4.34q.08-.31.3-.48.21-.17.56-.17h1.98v5.01h4.25v2.72h-4.25v8.62q0 .75.36 1.17.37.41 1 .41.36 0 .6-.08.24-.09.42-.18t.32-.18q.14-.08.28-.08.17 0 .27.08.11.09.24.26l1.14 1.86q-.83.7-1.92 1.05-1.08.36-2.25.36m6.36-16.15h3.84v15.9h-3.84zm4.37-4.64q0 .5-.2.93-.2.44-.54.76-.33.33-.78.52t-.96.19q-.5 0-.94-.19t-.76-.52q-.33-.32-.52-.76-.2-.43-.2-.93 0-.51.2-.96.19-.45.52-.77.32-.33.76-.52.44-.2.94-.2.51 0 .96.2.45.19.78.52.34.32.54.77t.2.96m10.42 4.39q1.76 0 3.21.57 1.45.58 2.48 1.63t1.59 2.57.56 3.4q0 1.89-.56 3.41t-1.59 2.59-2.48 1.64-3.21.57q-1.79 0-3.24-.57-1.46-.57-2.49-1.64t-1.6-2.59q-.56-1.52-.56-3.41 0-1.88.56-3.4.57-1.52 1.6-2.57t2.49-1.63q1.45-.57 3.24-.57m0 13.44q1.98 0 2.93-1.34.96-1.33.96-3.9t-.96-3.92q-.95-1.35-2.93-1.35-2.02 0-2.99 1.35-.97 1.36-.97 3.92t.97 3.9 2.99 1.34m14.09-12.5.26 1.26q.48-.48 1.01-.89.54-.41 1.14-.7.59-.29 1.27-.45.69-.16 1.49-.16 1.3 0 2.31.44t1.68 1.24q.68.8 1.03 1.91t.35 2.44v10.12h-3.83V248.8q0-1.46-.67-2.26t-2.03-.8q-.99 0-1.86.45t-1.64 1.23v11.5h-3.83v-15.9h2.34q.74 0 .98.69m35.27-5.09-1.03 1.96q-.19.33-.4.48-.21.14-.52.14-.32 0-.7-.24t-.91-.53q-.53-.3-1.23-.54-.71-.24-1.67-.24-.87 0-1.52.21t-1.09.58q-.44.38-.66.9-.22.51-.22 1.13 0 .8.44 1.32.45.53 1.17.9.73.37 1.66.67.93.29 1.91.63.98.33 1.91.77t1.65 1.12q.73.67 1.18 1.65.44.97.44 2.37 0 1.52-.52 2.84-.52 1.33-1.52 2.31-1 .99-2.44 1.55-1.44.57-3.3.57-1.07 0-2.11-.21t-1.99-.6q-.96-.39-1.79-.93-.84-.54-1.49-1.21l1.22-2q.16-.21.41-.36.24-.15.52-.15.39 0 .84.32t1.07.71q.62.38 1.45.7t1.99.32q1.78 0 2.76-.85.98-.84.98-2.42 0-.89-.45-1.44-.44-.56-1.17-.94t-1.66-.65q-.93-.26-1.89-.57t-1.89-.74q-.93-.44-1.66-1.13-.72-.7-1.17-1.75-.44-1.04-.44-2.58 0-1.22.49-2.39.49-1.16 1.42-2.06t2.29-1.44q1.37-.54 3.13-.54 1.99 0 3.66.62 1.68.62 2.85 1.74m7.26-2.73v8.83q.93-.87 2.04-1.41 1.12-.54 2.62-.54 1.31 0 2.31.44 1.01.44 1.68 1.24.68.8 1.03 1.91t.35 2.44v10.12h-3.83V248.8q0-1.46-.67-2.26t-2.03-.8q-.99 0-1.86.45t-1.64 1.23v11.5h-3.83v-23.03zm13.78 7.13h3.84v15.9h-3.84zm4.37-4.64q0 .5-.2.93-.2.44-.54.76-.33.33-.78.52t-.96.19q-.5 0-.94-.19t-.77-.52q-.32-.32-.52-.76-.19-.43-.19-.93 0-.51.19-.96.2-.45.52-.77.33-.33.77-.52.44-.2.94-.2.51 0 .96.2.45.19.78.52.34.32.54.77t.2.96m6.4 10.76h7.22q0-.74-.21-1.4t-.62-1.16q-.42-.49-1.07-.78-.64-.29-1.49-.29-1.66 0-2.61.95-.96.94-1.22 2.68m9.76 2.31h-9.84q.1 1.22.44 2.11.34.9.9 1.48.55.58 1.32.87.77.28 1.7.28t1.6-.21q.68-.22 1.18-.49.5-.26.88-.48.38-.21.74-.21.48 0 .71.35l1.1 1.4q-.63.74-1.42 1.25-.79.5-1.65.8t-1.75.43q-.9.12-1.73.12-1.66 0-3.09-.55-1.42-.55-2.48-1.63-1.05-1.07-1.66-2.66-.6-1.59-.6-3.68 0-1.63.53-3.06.52-1.44 1.51-2.5.98-1.06 2.4-1.68t3.2-.62q1.5 0 2.78.48 1.27.48 2.18 1.4.92.92 1.43 2.27.52 1.34.52 3.06 0 .86-.18 1.17-.19.3-.72.3m3.82-15.56h3.83v23.03h-3.83zm17.64 18.32v-7.13q-.65-.79-1.42-1.12-.77-.32-1.65-.32-.87 0-1.57.32-.7.33-1.19.99-.5.66-.76 1.67-.26 1.02-.26 2.39 0 1.4.22 2.37.23.97.64 1.58.42.61 1.03.88.6.27 1.35.27 1.19 0 2.03-.49.83-.5 1.58-1.41m0-18.32h3.83v23.03h-2.35q-.75 0-.96-.7l-.32-1.53q-.96 1.1-2.21 1.78t-2.91.68q-1.3 0-2.38-.54-1.09-.54-1.87-1.57t-1.21-2.55-.43-3.48q0-1.76.48-3.28t1.38-2.64q.9-1.11 2.16-1.74 1.25-.63 2.82-.63 1.33 0 2.28.42.94.42 1.69 1.13z"/></svg>