<svg xmlns="http://www.w3.org/2000/svg" width="600" height="400" viewBox="0 0 600 400"><rect width="100%" height="100%" fill="#E0F2FE"/><path fill="#0C4A6E" d="m144.235 180.195-1.78 3.36q-.31.56-.67.81t-.89.25q-.56 0-1.21-.41-.64-.41-1.55-.91-.9-.51-2.1-.92-1.21-.41-2.85-.41-1.48 0-2.6.36-1.11.36-1.87.99-.75.64-1.12 1.53-.37.88-.37 1.94 0 1.35.75 2.26.76.9 2 1.53 1.25.64 2.84 1.14 1.59.51 3.26 1.08t3.26 1.32q1.59.76 2.83 1.91 1.25 1.15 2 2.82.76 1.67.76 4.06 0 2.59-.89 4.86-.89 2.26-2.6 3.95-1.71 1.68-4.17 2.65-2.46.96-5.64.96-1.83 0-3.61-.35-1.77-.36-3.4-1.02-1.63-.67-3.06-1.59-1.44-.93-2.55-2.07l2.1-3.42q.26-.37.68-.62.43-.25.91-.25.66 0 1.43.54.76.54 1.82 1.21 1.06.66 2.48 1.2t3.41.54q3.05 0 4.71-1.44 1.67-1.44 1.67-4.15 0-1.51-.75-2.46-.76-.96-2-1.61-1.25-.64-2.84-1.09-1.59-.46-3.23-.99t-3.23-1.27-2.84-1.93q-1.24-1.19-2-2.98-.75-1.79-.75-4.42 0-2.09.83-4.08.83-1.98 2.42-3.52t3.93-2.47q2.33-.92 5.35-.92 3.39 0 6.25 1.06 2.87 1.06 4.88 2.97m14.92 35.13q-3.55 0-5.45-2-1.89-2-1.89-5.52v-15.19h-2.78q-.53 0-.9-.34-.38-.35-.38-1.03v-2.6l4.38-.72 1.37-7.42q.14-.53.51-.82t.95-.29h3.39v8.56h7.27v4.66h-7.27v14.74q0 1.27.63 1.99.62.71 1.71.71.61 0 1.02-.15.41-.14.71-.3.31-.16.55-.3.23-.15.47-.15.29 0 .48.15.18.14.4.43l1.96 3.18q-1.43 1.2-3.29 1.8-1.85.61-3.84.61m16.43-25.97.4 3.08q1.27-2.44 3.02-3.83t4.13-1.39q1.88 0 3.02.82l-.42 4.9q-.13.48-.39.68-.25.2-.67.2-.4 0-1.18-.14-.78-.13-1.52-.13-1.09 0-1.94.32t-1.52.91q-.68.6-1.2 1.45-.51.85-.96 1.93v16.75h-6.55v-27.19h3.84q1.01 0 1.41.36t.53 1.28m19.16 8.83h12.35q0-1.27-.36-2.4t-1.07-1.97q-.72-.85-1.82-1.34t-2.56-.49q-2.83 0-4.46 1.61-1.63 1.62-2.08 4.59m16.69 3.95h-16.82q.16 2.09.74 3.61.58 1.53 1.54 2.52.95 1 2.26 1.49t2.9.49 2.75-.38q1.15-.37 2.01-.82t1.51-.82 1.26-.37q.82 0 1.22.61l1.88 2.39q-1.09 1.27-2.44 2.13t-2.82 1.38q-1.47.51-3 .73-1.52.21-2.95.21-2.84 0-5.27-.94-2.44-.94-4.24-2.79-1.81-1.84-2.84-4.55-1.03-2.72-1.03-6.3 0-2.78.9-5.23t2.58-4.27q1.68-1.81 4.11-2.87 2.42-1.06 5.47-1.06 2.57 0 4.75.82 2.17.82 3.73 2.4 1.57 1.57 2.45 3.87.89 2.29.89 5.23 0 1.48-.32 2t-1.22.52m12.11-13.23.45 2.15q.83-.82 1.74-1.52.91-.71 1.93-1.2 1.03-.49 2.19-.76 1.17-.28 2.55-.28 2.22 0 3.94.75 1.73.76 2.88 2.12 1.15 1.37 1.75 3.26.59 1.9.59 4.18v17.3h-6.54v-17.3q0-2.5-1.14-3.86t-3.47-1.36q-1.7 0-3.18.76-1.49.77-2.81 2.1v19.66h-6.55v-27.19h4q1.28 0 1.67 1.19m34.16 11.74q1.22 0 2.12-.33t1.5-.91q.6-.59.9-1.41.31-.82.31-1.8 0-2.01-1.21-3.19t-3.62-1.18-3.61 1.18q-1.21 1.18-1.21 3.19 0 .96.3 1.78.31.82.91 1.41.59.6 1.51.93.91.33 2.1.33m7.4 15.48q0-.8-.48-1.3t-1.3-.78-1.92-.41-2.33-.2-2.55-.12q-1.31-.05-2.55-.21-1.09.61-1.77 1.43-.67.82-.67 1.91 0 .71.36 1.34.35.62 1.14 1.07.78.45 2.02.7 1.25.25 3.05.25 1.83 0 3.15-.28 1.33-.27 2.19-.76t1.26-1.17.4-1.47m-1.3-27.48h7.82v2.44q0 1.16-1.41 1.43l-2.44.45q.56 1.4.56 3.07 0 2.02-.81 3.65t-2.24 2.76q-1.43 1.14-3.38 1.77-1.94.62-4.2.62-.79 0-1.53-.08-.75-.08-1.46-.21-1.27.77-1.27 1.72 0 .82.75 1.21.76.38 2 .54 1.25.16 2.84.2t3.26.17 3.26.46q1.59.34 2.83 1.05 1.25.72 2 1.95.76 1.23.76 3.17 0 1.8-.89 3.49-.89 1.7-2.57 3.03-1.68 1.32-4.13 2.13-2.46.81-5.58.81-3.08 0-5.36-.6-2.27-.6-3.78-1.59-1.52-.99-2.26-2.29t-.74-2.71q0-1.9 1.15-3.19 1.16-1.28 3.17-2.05-1.09-.56-1.72-1.49-.64-.92-.64-2.43 0-.61.23-1.26.22-.65.66-1.29.44-.63 1.1-1.2t1.56-1.02q-2.06-1.12-3.24-2.97-1.18-1.86-1.18-4.35 0-2.01.81-3.64.8-1.63 2.25-2.78 1.44-1.16 3.42-1.77 1.97-.61 4.3-.61 1.75 0 3.29.36t2.81 1.05m21.01 26.68q-3.55 0-5.44-2-1.9-2-1.9-5.52v-15.19h-2.78q-.53 0-.9-.34-.37-.35-.37-1.03v-2.6l4.37-.72 1.38-7.42q.13-.53.5-.82t.96-.29h3.39v8.56h7.26v4.66h-7.26v14.74q0 1.27.62 1.99.62.71 1.71.71.61 0 1.02-.15.41-.14.71-.3.31-.16.55-.3.24-.15.48-.15.29 0 .47.15.19.14.4.43l1.96 3.18q-1.43 1.2-3.29 1.8-1.85.61-3.84.61m17.2-39.8v15.11q1.59-1.49 3.5-2.42 1.91-.92 4.48-.92 2.22 0 3.95.75 1.72.76 2.87 2.12 1.15 1.37 1.75 3.26.6 1.9.6 4.18v17.3h-6.55v-17.3q0-2.5-1.14-3.86t-3.47-1.36q-1.7 0-3.18.76-1.48.77-2.81 2.1v19.66h-6.54v-39.38zm73.43 1.06h5.38v38.32h-6.28v-24.75q0-1.48.16-3.21l-11.58 21.76q-.82 1.56-2.52 1.56h-1q-1.7 0-2.52-1.56l-11.72-21.84q.08.88.14 1.73.05.84.05 1.56v24.75h-6.28v-38.32h5.38q.48 0 .82.03.35.02.62.13.28.11.51.34.22.24.43.64l11.48 21.28q.45.85.83 1.75.39.9.76 1.85.37-.98.77-1.89.39-.92.85-1.76l11.31-21.23q.21-.4.45-.64.24-.23.52-.34t.62-.13q.35-.03.82-.03m18.05 21.6h12.35q0-1.27-.36-2.4t-1.07-1.97q-.72-.85-1.82-1.34t-2.56-.49q-2.83 0-4.46 1.61-1.63 1.62-2.08 4.59m16.69 3.95h-16.82q.16 2.09.74 3.61.58 1.53 1.54 2.52.95 1 2.26 1.49t2.9.49 2.75-.38q1.15-.37 2.01-.82t1.51-.82 1.26-.37q.82 0 1.22.61l1.88 2.39q-1.09 1.27-2.44 2.13t-2.82 1.38q-1.47.51-3 .73-1.52.21-2.95.21-2.84 0-5.27-.94-2.44-.94-4.24-2.79-1.81-1.84-2.84-4.55-1.03-2.72-1.03-6.3 0-2.78.9-5.23t2.58-4.27q1.68-1.81 4.11-2.87 2.42-1.06 5.47-1.06 2.57 0 4.75.82 2.17.82 3.73 2.4 1.57 1.57 2.45 3.87.89 2.29.89 5.23 0 1.48-.32 2t-1.22.52m15.51 13.19q-3.55 0-5.45-2-1.89-2-1.89-5.52v-15.19h-2.79q-.53 0-.9-.34-.37-.35-.37-1.03v-2.6l4.37-.72 1.38-7.42q.13-.53.51-.82.37-.29.95-.29h3.39v8.56h7.26v4.66h-7.26v14.74q0 1.27.62 1.99.63.71 1.71.71.61 0 1.02-.15.41-.14.72-.3.3-.16.54-.3.24-.15.48-.15.29 0 .48.15.18.14.39.43l1.96 3.18q-1.43 1.2-3.28 1.8-1.86.61-3.84.61m15.82-17.14h12.35q0-1.27-.36-2.4t-1.08-1.97q-.71-.85-1.81-1.34t-2.56-.49q-2.83 0-4.46 1.61-1.63 1.62-2.08 4.59m16.69 3.95h-16.83q.16 2.09.75 3.61.58 1.53 1.53 2.52.96 1 2.27 1.49t2.9.49 2.74-.38q1.16-.37 2.02-.82t1.51-.82 1.26-.37q.82 0 1.22.61l1.88 2.39q-1.09 1.27-2.44 2.13t-2.82 1.38q-1.47.51-3 .73-1.52.21-2.95.21-2.84 0-5.28-.94-2.43-.94-4.24-2.79-1.8-1.84-2.83-4.55-1.03-2.72-1.03-6.3 0-2.78.9-5.23t2.58-4.27q1.68-1.81 4.11-2.87 2.42-1.06 5.47-1.06 2.57 0 4.74.82 2.18.82 3.74 2.4 1.56 1.57 2.45 3.87.89 2.29.89 5.23 0 1.48-.32 2t-1.22.52m12.22-12.78.4 3.08q1.27-2.44 3.02-3.83t4.13-1.39q1.88 0 3.02.82l-.42 4.9q-.13.48-.39.68-.25.2-.67.2-.4 0-1.18-.14-.78-.13-1.53-.13-1.08 0-1.93.32t-1.52.91q-.68.6-1.2 1.45-.51.85-.96 1.93v16.75h-6.55v-27.19h3.84q1.01 0 1.41.36t.53 1.28"/></svg>